HIERARCHY
ROOT Hips
{
	OFFSET 0.000000 0.000000 0.000000
	CHANNELS 6 Xposition Yposition Zposition Zrotation Yrotation Xrotation 
	JOINT LowerBack
	{
		OFFSET 0.000000 0.000000 0.000000
		CHANNELS 3 Zrotation Yrotation Xrotation
		JOINT Spine
		{
			OFFSET 0.028270 2.035590 -0.193380
			CHANNELS 3 Zrotation Yrotation Xrotation
			JOINT Spine1
			{
				OFFSET 0.056720 2.048850 -0.042750
				CHANNELS 3 Zrotation Yrotation Xrotation
				JOINT Neck
				{
					OFFSET 0.000000 0.000000 0.000000
					CHANNELS 3 Zrotation Yrotation Xrotation
					JOINT Neck1
					{
						OFFSET -0.054170 1.746240 0.172020
						CHANNELS 3 Zrotation Yrotation Xrotation
						JOINT Head
						{
							OFFSET 0.104070 1.761360 -0.123970
							CHANNELS 3 Zrotation Yrotation Xrotation
							End Site
							{
								OFFSET 0.000000 0.000000 0.000000
							}
						}
					}
				}
				JOINT LeftShoulder
				{
					OFFSET 0.000000 0.000000 0.000000
					CHANNELS 3 Zrotation Yrotation Xrotation
					JOINT LeftArm
					{
						OFFSET 3.362410 1.200890 -0.311210
						CHANNELS 3 Zrotation Yrotation Xrotation
						JOINT LeftForeArm
						{
							OFFSET 4.983000 -0.000000 -0.000000
							CHANNELS 3 Zrotation Yrotation Xrotation
							JOINT LeftHand
							{
								OFFSET 3.483560 -0.000000 -0.000000
								CHANNELS 3 Zrotation Yrotation Xrotation
								JOINT LeftFingerBase
								{
									OFFSET 0.000000 0.000000 0.000000
									CHANNELS 3 Zrotation Yrotation Xrotation
									JOINT LeftHandIndex1
									{
										OFFSET 0.715260 -0.000000 -0.000000
										CHANNELS 3 Zrotation Yrotation Xrotation
										End Site
										{
											OFFSET 0.000000 0.000000 0.000000
										}
									}
								}
								JOINT LThumb
								{
									OFFSET 0.000000 0.000000 0.000000
									CHANNELS 3 Zrotation Yrotation Xrotation
									End Site
									{
										OFFSET 0.000000 0.000000 0.000000
									}
								}
							}
						}
					}
				}
				JOINT RightShoulder
				{
					OFFSET 0.000000 0.000000 0.000000
					CHANNELS 3 Zrotation Yrotation Xrotation
					JOINT RightArm
					{
						OFFSET -3.136600 1.374050 -0.404650
						CHANNELS 3 Zrotation Yrotation Xrotation
						JOINT RightForeArm
						{
							OFFSET -5.241900 -0.000000 -0.000000
							CHANNELS 3 Zrotation Yrotation Xrotation
							JOINT RightHand
							{
								OFFSET -3.444170 -0.000000 -0.000000
								CHANNELS 3 Zrotation Yrotation Xrotation
								JOINT RightFingerBase
								{
									OFFSET 0.000000 0.000000 0.000000
									CHANNELS 3 Zrotation Yrotation Xrotation
									JOINT RightHandIndex1
									{
										OFFSET -0.622530 -0.000000 -0.000000
										CHANNELS 3 Zrotation Yrotation Xrotation
										End Site
										{
											OFFSET 0.000000 0.000000 0.000000
										}
									}
								}
								JOINT RThumb
								{
									OFFSET 0.000000 0.000000 0.000000
									CHANNELS 3 Zrotation Yrotation Xrotation
									End Site
									{
										OFFSET 0.000000 0.000000 0.000000
									}
								}
							}
						}
					}
				}
			}
		}
	}
}
}
MOTION
Frames: 11
Frame Time: 0.008333
-19.068560 16.940756 -0.657032 78.785066 85.738862 98.426508 -7.019869 3.048285 -9.461211 -2.905377 3.433071 -4.797474 -7.093668 3.452804 1.116316 11.700993 -6.743370 -9.605014 -3.322204 -0.245791 -0.554767 0.000000 0.000000 0.000000 0.848608 24.222632 1.578587 -52.134262 18.826892 1.674512 -1.448427 -67.336621 0.005979 6.462492 -0.479986 -0.025555 -0.181650 -0.014099 -0.000000 0.000000 0.000000 0.000000 0.000000 0.000000 0.000000 16.769084 3.590893 0.023498 72.151439 21.198243 40.387866 0.798481 79.544223 0.033023 3.663144 6.040041 0.210853 -0.006943 -0.473592 -0.000000 0.000000 0.000000 0.000000 0.000000 0.000000 0.000000 
-18.861733 16.941911 -0.657521 81.242114 85.424408 100.436138 -7.318989 2.941134 -9.196464 -2.967401 3.357772 -4.755418 -7.149271 3.379382 1.063827 11.818175 -6.882243 -9.601993 -3.345421 -0.247235 -0.556234 0.000000 0.000000 0.000000 0.886389 24.106770 1.544819 -51.975608 18.464888 2.156799 -1.429540 -67.601712 0.005813 6.476839 -0.505526 -0.027245 -0.181304 -0.011733 -0.000000 0.000000 0.000000 0.000000 0.000000 0.000000 0.000000 17.031687 3.418353 -0.008995 72.508654 20.614999 40.023575 0.817593 79.152305 0.034176 3.910157 5.986222 0.223312 -0.012680 -0.470635 -0.000000 0.000000 0.000000 0.000000 0.000000 0.000000 0.000000 
-18.657326 16.942518 -0.659247 83.686565 85.109264 102.423063 -7.587328 2.825885 -8.901092 -3.019283 3.270252 -4.705305 -7.196748 3.293657 1.011738 11.917697 -7.044238 -9.604379 -3.366034 -0.248309 -0.559145 0.000000 0.000000 0.000000 0.888797 23.967439 1.508131 -51.873937 18.026448 2.663789 -1.410744 -67.849361 0.005622 6.523648 -0.535605 -0.029331 -0.181097 -0.008907 -0.000000 0.000000 0.000000 0.000000 0.000000 0.000000 0.000000 17.264212 3.207851 -0.045277 72.840953 20.011754 39.600006 0.833660 78.780344 0.034962 4.103409 5.933572 0.232374 -0.017501 -0.467407 -0.000000 0.000000 0.000000 0.000000 0.000000 0.000000 0.000000 
-18.455069 16.942970 -0.662877 86.013773 84.811925 104.301954 -7.803781 2.706549 -8.598432 -3.057206 3.172671 -4.650957 -7.236619 3.197745 0.962660 11.998254 -7.231484 -9.612130 -3.383666 -0.249053 -0.563068 0.000000 0.000000 0.000000 0.850503 23.810712 1.465773 -51.835355 17.516762 3.191760 -1.391967 -68.076645 0.005394 6.602374 -0.566188 -0.031714 -0.181071 -0.005682 -0.000000 0.000000 0.000000 0.000000 0.000000 0.000000 0.000000 17.463063 2.957465 -0.086592 73.145805 19.384323 39.122820 0.847129 78.428608 0.035307 4.226643 5.894492 0.237944 -0.021059 -0.464104 -0.000000 0.000000 0.000000 0.000000 0.000000 0.000000 0.000000 
-18.255253 16.943777 -0.667478 88.045091 84.512398 105.896194 -7.993657 2.583037 -8.288500 -3.086942 3.067527 -4.594434 -7.271809 3.093994 0.910042 12.064013 -7.431312 -9.618583 -3.400181 -0.249707 -0.566442 0.000000 0.000000 0.000000 0.765189 23.626195 1.418608 -51.839705 16.958615 3.737104 -1.371986 -68.306546 0.005144 6.720490 -0.598694 -0.034492 -0.181257 -0.002178 -0.000000 0.000000 0.000000 0.000000 0.000000 0.000000 0.000000 17.637284 2.683726 -0.131991 73.436761 18.718142 38.568680 0.858630 78.094727 0.035320 4.296764 5.870299 0.240921 -0.023745 -0.460910 -0.000000 0.000000 0.000000 0.000000 0.000000 0.000000 0.000000 
-18.056828 16.945371 -0.674334 89.752444 84.249244 107.204308 -8.117244 2.460018 -8.006190 -3.100964 2.956195 -4.540676 -7.301835 2.983798 0.861465 12.112759 -7.650012 -9.626384 -3.414934 -0.250283 -0.569325 0.000000 0.000000 0.000000 0.631118 23.428965 1.362850 -51.906360 16.352787 4.293783 -1.351644 -68.520615 0.004854 6.868802 -0.628967 -0.037265 -0.181646 0.001558 -0.000000 0.000000 0.000000 0.000000 0.000000 0.000000 0.000000 17.783625 2.379099 -0.182559 73.699593 18.019694 37.963622 0.868679 77.776039 0.034877 4.288363 5.874212 0.240508 -0.024970 -0.457900 -0.000000 0.000000 0.000000 0.000000 0.000000 0.000000 0.000000 
-17.859907 16.948237 -0.683043 91.031520 84.020068 108.127327 -8.183227 2.338053 -7.758583 -3.101564 2.840401 -4.491672 -7.328045 2.868827 0.816285 12.147577 -7.881897 -9.633163 -3.429112 -0.250928 -0.571145 0.000000 0.000000 0.000000 0.448103 23.219972 1.298609 -52.032542 15.710346 4.856928 -1.330866 -68.722741 0.004529 7.045337 -0.658064 -0.040334 -0.182211 0.005471 -0.000000 0.000000 0.000000 0.000000 0.000000 0.000000 0.000000 17.910340 2.051374 -0.237224 73.936704 17.289943 37.307899 0.877912 77.467423 0.034030 4.208516 5.906809 0.237205 -0.024854 -0.455102 -0.000000 0.000000 0.000000 0.000000 0.000000 0.000000 0.000000 
-17.664156 16.952829 -0.693621 91.821624 83.833680 108.612273 -8.186110 2.218067 -7.556602 -3.087982 2.720851 -4.450375 -7.350968 2.749652 0.772467 12.167459 -8.117269 -9.634760 -3.443686 -0.251807 -0.570644 0.000000 0.000000 0.000000 0.213039 22.994429 1.226275 -52.217801 15.056565 5.418189 -1.309374 -68.919970 0.004172 7.243756 -0.686672 -0.043599 -0.182892 0.009474 -0.000000 0.000000 0.000000 0.000000 0.000000 0.000000 0.000000 18.018449 1.712027 -0.295349 74.147601 16.523643 36.602656 0.886564 77.166012 0.032832 4.065923 5.965086 0.231211 -0.023597 -0.452418 -0.000000 0.000000 0.000000 0.000000 0.000000 0.000000 0.000000 
-17.469533 16.959498 -0.705851 92.068975 83.690886 108.605135 -8.130770 2.100238 -7.401967 -3.061303 2.598315 -4.416188 -7.370081 2.627116 0.735158 12.175533 -8.359631 -9.634667 -3.458671 -0.252874 -0.568901 0.000000 0.000000 0.000000 -0.064376 22.767067 1.146238 -52.473486 14.379469 5.978146 -1.288348 -69.097261 0.003777 7.455410 -0.717113 -0.047161 -0.183637 0.013645 -0.000000 0.000000 0.000000 0.000000 0.000000 0.000000 0.000000 18.115316 1.357803 -0.355772 74.327564 15.740805 35.868753 0.895135 76.864983 0.031301 3.861948 6.044993 0.222225 -0.021136 -0.449696 -0.000000 0.000000 0.000000 0.000000 0.000000 0.000000 0.000000 
-17.276042 16.968538 -0.719674 91.751275 83.596592 108.082823 -8.012282 1.984436 -7.295785 -3.020435 2.472209 -4.390381 -7.384918 2.500474 0.700830 12.168747 -8.598072 -9.628700 -3.474740 -0.254245 -0.564742 0.000000 0.000000 0.000000 -0.384155 22.527762 1.060522 -52.800991 13.706960 6.527585 -1.267462 -69.264481 0.003349 7.670401 -0.751507 -0.051120 -0.184347 0.017964 -0.000000 0.000000 0.000000 0.000000 0.000000 0.000000 0.000000 18.197834 1.001109 -0.417467 74.476692 14.937693 35.107755 0.903405 76.563352 0.029519 3.612327 6.136656 0.210743 -0.017835 -0.446716 0.000000 0.000000 0.000000 0.000000 0.000000 0.000000 0.000000 
-17.083806 16.980087 -0.734865 90.852611 83.547328 107.021191 -7.835151 1.869624 -7.229848 -2.965910 2.341760 -4.370475 -7.394099 2.369033 0.673637 12.148408 -8.835485 -9.620978 -3.491336 -0.255788 -0.559503 0.000000 0.000000 0.000000 -0.734779 22.289810 0.970893 -53.211776 13.024504 7.070494 -1.247932 -69.408061 0.002877 7.878974 -0.792114 -0.055677 -0.184973 0.022573 -0.000000 0.000000 0.000000 0.000000 0.000000 0.000000 0.000000 18.268427 0.638813 -0.479475 74.591008 14.134551 34.340670 0.911331 76.257579 0.027540 3.323685 6.230606 0.196464 -0.013770 -0.443248 0.000000 0.000000 0.000000 0.000000 0.000000 0.000000 0.000000 
